<?xml version="1.0" standalone="no"?>
<!DOCTYPE svg PUBLIC "-//W3C//DTD SVG 20010904//EN"
 "http://www.w3.org/TR/2001/REC-SVG-20010904/DTD/svg10.dtd">
<svg version="1.0" xmlns="http://www.w3.org/2000/svg"
 width="192.000000pt" height="192.000000pt" viewBox="0 0 192.000000 192.000000"
 preserveAspectRatio="xMidYMid meet">
<metadata>
Created by potrace 1.11, written by Peter Selinger 2001-2013
</metadata>
<g transform="translate(0.000000,192.000000) scale(0.100000,-0.100000)"
fill="#000000" stroke="none">
<path d="M940 1881 c-8 -4 -42 -14 -75 -21 -241 -51 -454 -255 -534 -510 -22
-73 -25 -147 -26 -650 l0 -425 614 -3 c420 -1 617 1 621 8 4 6 6 61 5 123 -3
120 -19 176 -71 244 -27 35 -109 92 -164 113 -19 8 -37 16 -40 20 -3 3 -32 18
-65 34 -129 63 -159 113 -159 267 0 60 3 111 6 115 8 7 84 -32 108 -56 11 -11
22 -32 26 -47 4 -16 10 -32 14 -38 4 -5 6 -18 5 -27 -2 -10 1 -20 5 -23 5 -3
12 -25 15 -50 7 -43 29 -74 57 -79 7 -1 28 -9 47 -19 19 -9 45 -17 58 -17 22
0 226 87 269 115 22 14 22 18 22 339 l0 324 -35 42 -36 42 28 56 c33 66 34 68
22 105 l-9 27 -346 0 c-191 0 -354 -4 -362 -9z m561 -371 c13 0 39 -44 45 -74
3 -20 -3 -34 -25 -56 -16 -17 -35 -28 -43 -26 -7 2 -25 7 -39 10 -27 6 -49 41
-49 80 0 35 57 80 88 70 8 -2 18 -4 23 -4z"/>
<path d="M196 194 c-21 -15 -23 -146 -3 -162 9 -8 231 -11 733 -11 696 0 721
1 737 19 22 26 22 133 0 152 -22 18 -1443 20 -1467 2z"/>
</g>
</svg>
